<svg xmlns="http://www.w3.org/2000/svg" width="14.464" height="14.464" viewBox="0 0 14.464 14.464">
  <g id="Group_335" data-name="Group 335" transform="translate(-1334.313 1429.732)">
    <path id="Path" d="M0,9v3.052H3.052l9-9L9,0Z" transform="translate(1334.313 -1427.321)" fill="#001726"/>
    <path id="Path-2" data-name="Path" d="M4.581,3.319a.818.818,0,0,0,0-1.158L2.66.24A.818.818,0,0,0,1.5.24L0,1.743,3.079,4.821Z" transform="translate(1343.955 -1429.732)" fill="#001726"/>
    <path id="Path-3" data-name="Path" d="M4.581,3.319a.818.818,0,0,0,0-1.158L2.66.24A.818.818,0,0,0,1.5.24L0,1.743,3.079,4.821Z" transform="translate(1343.955 -1429.732)" fill="#001726"/>
  </g>
</svg>
