<svg xmlns="http://www.w3.org/2000/svg" width="20.411" height="10.764" viewBox="0 0 20.411 10.764"><defs><style>.a{fill:#d6d6d6;}</style></defs><g transform="translate(0 -121)"><g transform="translate(-0.001 121)"><g transform="translate(0 0)"><path class="a" d="M20.258,125.983c-.182-.2-4.564-4.983-10.053-4.983S.334,125.78.152,125.983a.6.6,0,0,0,0,.8c.182.2,4.564,4.983,10.053,4.983s9.871-4.78,10.053-4.983A.6.6,0,0,0,20.258,125.983Zm-10.053,4.585a4.186,4.186,0,1,1,4.186-4.186A4.191,4.191,0,0,1,10.205,130.568Z" transform="translate(0.001 -121)"/></g></g><g transform="translate(7.215 123.392)"><g transform="translate(0 0)"><path class="a" d="M184.588,182.794a1.788,1.788,0,0,1,.753-1.456A2.952,2.952,0,0,0,183.99,181a2.99,2.99,0,1,0,2.939,3.494A1.784,1.784,0,0,1,184.588,182.794Z" transform="translate(-181 -181)"/></g></g></g></svg>