<svg xmlns="http://www.w3.org/2000/svg" width="437.375" height="293.484" viewBox="0 0 437.375 293.484">
  <g id="Group_398" data-name="Group 398" transform="translate(-34.387 -105.678)">
    <g id="Group_395" data-name="Group 395" transform="translate(35.887 105.678)">
      <path id="Path_282" data-name="Path 282" d="M174.762,284.86l89.229-71.219V134.5H89.05v87.039Z" transform="translate(41.024 -63.978)" fill="none" stroke="#fff" stroke-linecap="round" stroke-linejoin="round" stroke-width="3"/>
      <path id="Path_283" data-name="Path 283" d="M77.594,317.324V164.644l113.741,84.025L303.027,159.52v157.8Z" transform="translate(24.45 -27.786)" fill="none" stroke="#eff3f5" stroke-linecap="round" stroke-linejoin="round" stroke-width="3"/>
      <line id="Line_12" data-name="Line 12" x1="22.123" y1="18.933" transform="translate(305.01 112.552)" fill="none" stroke="#eff3f5" stroke-linecap="round" stroke-linejoin="round" stroke-width="3"/>
      <line id="Line_13" data-name="Line 13" x1="27.94" y2="23.199" transform="translate(102.133 113.286)" fill="none" stroke="#eff3f5" stroke-linecap="round" stroke-linejoin="round" stroke-width="3"/>
      <path id="Path_284" data-name="Path 284" d="M113.58,148.179l27.452-23.129,27.745,23.129" transform="translate(76.51 -77.653)" fill="none" stroke="#fff" stroke-linecap="round" stroke-linejoin="round" stroke-width="3"/>
      <path id="Path_285" data-name="Path 285" d="M145.724,240.548l-36.6-27.041V171.119a5.984,5.984,0,0,1,5.982-5.985h65.943a5.984,5.984,0,0,1,5.982,5.985v36.46Z" transform="translate(70.061 -19.665)" fill="#dff2fd" stroke="#eff3f5" stroke-miterlimit="10" stroke-width="3"/>
      <path id="Path_286" data-name="Path 286" d="M116.418,193.966v-28.8a20.237,20.237,0,0,1,40.47,0v28.8" transform="translate(80.616 -48.497)" fill="none" stroke="#fff" stroke-miterlimit="10" stroke-width="3"/>
      <path id="Path_287" data-name="Path 287" d="M77.594,269.691l102.112-77.246,11.629,8.591,10.763-8.591,100.929,77.246Z" transform="translate(24.45 19.846)" fill="#dff2fe" stroke="#fff" stroke-miterlimit="10" stroke-width="3"/>
      <circle id="Ellipse_39" data-name="Ellipse 39" cx="50.16" cy="50.16" r="50.16" transform="translate(284.658 190.904)" fill="#eff3f5" stroke="#fff" stroke-miterlimit="10" stroke-width="1"/>
      <g id="Group_387" data-name="Group 387" transform="translate(369.526 78.641)" opacity="0.435">
        <path id="Path_288" data-name="Path 288" d="M196.373,150.019l-3.888-2.072-4,3.888a1.027,1.027,0,0,1-.661.245.806.806,0,0,1-.624-.267.893.893,0,0,1-.279-.663.776.776,0,0,1,.3-.624l3.584-3.477L188.835,146a.908.908,0,0,1-.377-1.233.9.9,0,0,1,1.233-.374l2.486,1.326,3.183-3.1-1.918-1.023a.913.913,0,0,1,.164-1.676.871.871,0,0,1,.692.071l2.437,1.3,3.315-3.222a.891.891,0,0,1,.648-.252.852.852,0,0,1,.639.272,1.052,1.052,0,0,1,.245.663.822.822,0,0,1-.267.624l-2.9,2.814,3.885,2.072,3.315-3.222a.893.893,0,0,1,.651-.252.847.847,0,0,1,.636.272,1.025,1.025,0,0,1,.245.663.817.817,0,0,1-.264.624l-2.9,2.814,1.789.954a.913.913,0,0,1-.164,1.676.87.87,0,0,1-.692-.071l-2.307-1.231-3.181,3.1,1.864,1a.9.9,0,0,1,.374,1.231.866.866,0,0,1-.536.445.885.885,0,0,1-.695-.069l-2.383-1.272-4,3.888a1.038,1.038,0,0,1-.663.245.81.81,0,0,1-.624-.267.9.9,0,0,1-.279-.663.774.774,0,0,1,.3-.621Zm-2.51-3.4,3.885,2.072,3.181-3.1-3.885-2.072Z" transform="translate(-186.919 -137.82)" fill="#dff2fd"/>
      </g>
      <g id="Group_388" data-name="Group 388" transform="translate(166.507 2.737)">
        <path id="Path_289" data-name="Path 289" d="M116.453,124.159l-5.671-1.977-4.575,6.08a1.418,1.418,0,0,1-.842.47,1.116,1.116,0,0,1-.9-.228,1.22,1.22,0,0,1-.514-.837,1.05,1.05,0,0,1,.272-.9l4.1-5.441-2.875-1a1.182,1.182,0,0,1-.712-.631,1.241,1.241,0,0,1,1.529-1.713l3.628,1.265,3.636-4.84-2.8-.974a1.241,1.241,0,1,1,.817-2.344l3.555,1.238,3.787-5.04a1.222,1.222,0,0,1,.822-.475,1.168,1.168,0,0,1,.918.232,1.414,1.414,0,0,1,.467.844,1.111,1.111,0,0,1-.228.9l-3.31,4.4,5.669,1.974,3.79-5.038a1.21,1.21,0,0,1,.825-.477,1.155,1.155,0,0,1,.913.232,1.415,1.415,0,0,1,.472.844,1.12,1.12,0,0,1-.228.9l-3.313,4.4,2.608.908a1.241,1.241,0,1,1-.817,2.344l-3.364-1.172-3.636,4.84,2.723.947a1.245,1.245,0,0,1,.135,2.293,1.193,1.193,0,0,1-.952.051l-3.479-1.211-4.575,6.08a1.418,1.418,0,0,1-.842.47,1.116,1.116,0,0,1-.9-.228,1.22,1.22,0,0,1-.514-.837,1.052,1.052,0,0,1,.272-.9Zm-4.1-4.057,5.671,1.974,3.636-4.84-5.671-1.974Z" transform="translate(-103.941 -106.797)" fill="#dff2fd"/>
      </g>
      <g id="Group_389" data-name="Group 389" transform="translate(85.508 94.848)">
        <path id="Path_290" data-name="Path 290" d="M80.815,158.292l-4.524-1.576-3.65,4.849a1.13,1.13,0,0,1-.67.374.885.885,0,0,1-.714-.181.968.968,0,0,1-.409-.668.84.84,0,0,1,.215-.719l3.269-4.338-2.293-.8a.985.985,0,0,1-.609-1.26.961.961,0,0,1,.5-.57.945.945,0,0,1,.756-.039l2.894,1.008,2.9-3.861-2.231-.776a.991.991,0,1,1,.651-1.872l2.836.988,3.022-4.017a.978.978,0,0,1,.656-.382.938.938,0,0,1,.732.186,1.136,1.136,0,0,1,.374.673.9.9,0,0,1-.184.714l-2.64,3.509,4.521,1.576,3.024-4.017a.972.972,0,0,1,.656-.382.931.931,0,0,1,.729.186,1.124,1.124,0,0,1,.374.673.885.885,0,0,1-.181.714l-2.64,3.509,2.08.724a.991.991,0,1,1-.651,1.872l-2.684-.937-2.9,3.861,2.17.756a.978.978,0,0,1,.609,1.26.983.983,0,0,1-1.26.609l-2.775-.966-3.65,4.849a1.13,1.13,0,0,1-.67.374.886.886,0,0,1-.714-.181.979.979,0,0,1-.411-.668.849.849,0,0,1,.218-.719Zm-3.269-3.235,4.521,1.576,2.9-3.861L80.445,151.2Z" transform="translate(-70.835 -144.444)" fill="snow"/>
      </g>
      <line id="Line_14" data-name="Line 14" x2="305.015" transform="translate(42.028 291.984)" fill="none" stroke="#fff" stroke-linecap="round" stroke-linejoin="round" stroke-width="3"/>
      <line id="Line_15" data-name="Line 15" x2="26.794" transform="translate(0 291.984)" fill="none" stroke="#fff" stroke-linecap="round" stroke-linejoin="round" stroke-width="3"/>
      <line id="Line_16" data-name="Line 16" x2="40.55" transform="translate(393.826 291.984)" fill="none" stroke="#fff" stroke-linecap="round" stroke-linejoin="round" stroke-width="3"/>
      <line id="Line_17" data-name="Line 17" x2="17.464" transform="translate(359.971 291.984)" fill="none" stroke="#fff" stroke-linecap="round" stroke-linejoin="round" stroke-width="3"/>
      <path id="Path_291" data-name="Path 291" stroke="#eff3f5" d="M58.141,199.839V180.546l13.011,12.629" fill="none" transform="translate(-3.691 2.631)" stroke-linecap="round" stroke-linejoin="round" stroke-width="3" opacity="0.353"/>
      <circle id="Ellipse_40" data-name="Ellipse 40" cx="9.52" cy="9.52" r="9.52" transform="translate(33.823 95.207)" fill="#eff3f5" opacity="0.458"/>
      <g id="Group_390" data-name="Group 390" transform="translate(335.841 53.949)">
        <path id="Path_292" data-name="Path 292" d="M189.544,140.9a1.892,1.892,0,0,0,.558,1.395,1.853,1.853,0,0,0,1.365.558,1.7,1.7,0,0,0,1.145-.372,2.407,2.407,0,0,0,.665-.944,4.426,4.426,0,0,0,.3-1.255c.039-.455.061-.888.061-1.3a9.152,9.152,0,0,0-.729-3.626,9.192,9.192,0,0,0-4.942-4.942,9.109,9.109,0,0,0-3.626-.729,8.984,8.984,0,0,0-3.609.729,9.208,9.208,0,0,0-4.928,4.942,9.11,9.11,0,0,0-.729,3.626,8.993,8.993,0,0,0,.729,3.609,9.246,9.246,0,0,0,4.928,4.928,8.984,8.984,0,0,0,3.609.729,11.2,11.2,0,0,0,1.426-.093,8.523,8.523,0,0,0,1.331-.279,1.444,1.444,0,0,1,.883-.032.766.766,0,0,1,.543.558.691.691,0,0,1-.2.807,3.231,3.231,0,0,1-.729.433,10.5,10.5,0,0,1-1.6.372,11.37,11.37,0,0,1-1.659.122,10.93,10.93,0,0,1-4.37-.881,11.136,11.136,0,0,1-5.933-5.936,11.251,11.251,0,0,1,0-8.74,11.441,11.441,0,0,1,2.386-3.562,11.158,11.158,0,0,1,3.548-2.4,11.251,11.251,0,0,1,8.74,0,11.258,11.258,0,0,1,5.965,5.965,10.89,10.89,0,0,1,.883,4.37,11.975,11.975,0,0,1-.171,1.967,5.929,5.929,0,0,1-.634,1.891,4.078,4.078,0,0,1-1.27,1.409,3.521,3.521,0,0,1-2.045.56,2.789,2.789,0,0,1-1.938-.714,5.375,5.375,0,0,1-1.255-1.674,6.443,6.443,0,0,1-1.767,1.223,4.836,4.836,0,0,1-2.138.514,5.161,5.161,0,0,1-2.031-.4,5.23,5.23,0,0,1-1.656-1.116,5.219,5.219,0,0,1,0-7.377,5.229,5.229,0,0,1,1.656-1.116,5.339,5.339,0,0,1,4.061,0,5.188,5.188,0,0,1,2.772,2.775,5.118,5.118,0,0,1,.4,2.031Zm-8.49-1.982a3.288,3.288,0,0,0,5.561,2.371,3.363,3.363,0,0,0,1.008-2.371,3.285,3.285,0,1,0-6.569,0Z" transform="translate(-173.151 -127.728)" fill="snow"/>
      </g>
      <g id="Group_391" data-name="Group 391" transform="translate(56.257 134.268)">
        <path id="Path_293" data-name="Path 293" d="M75.275,173.726a1.892,1.892,0,0,0,.558,1.395,1.861,1.861,0,0,0,1.363.558,1.712,1.712,0,0,0,1.147-.372,2.441,2.441,0,0,0,.665-.947A4.405,4.405,0,0,0,79.3,173.1c.042-.453.064-.886.064-1.3a9.143,9.143,0,0,0-.729-3.626,9.192,9.192,0,0,0-4.942-4.942,9.118,9.118,0,0,0-3.626-.729,9.005,9.005,0,0,0-3.611.729,9.23,9.23,0,0,0-4.928,4.942,9.141,9.141,0,0,0-.727,3.626,9.032,9.032,0,0,0,.727,3.609,9.29,9.29,0,0,0,4.928,4.928,9,9,0,0,0,3.611.727,10.766,10.766,0,0,0,1.426-.093,8.247,8.247,0,0,0,1.331-.279,1.442,1.442,0,0,1,.883-.029.766.766,0,0,1,.543.558.688.688,0,0,1-.2.8,3.129,3.129,0,0,1-.727.433,10.5,10.5,0,0,1-1.6.374,11.361,11.361,0,0,1-1.659.122,10.882,10.882,0,0,1-4.37-.883,11.12,11.12,0,0,1-5.933-5.933,11.222,11.222,0,0,1,0-8.74,11.452,11.452,0,0,1,2.385-3.565,11.125,11.125,0,0,1,3.548-2.4,11.251,11.251,0,0,1,8.74,0A11.235,11.235,0,0,1,80.4,167.4a10.89,10.89,0,0,1,.883,4.37,12.3,12.3,0,0,1-.171,1.967,5.928,5.928,0,0,1-.634,1.891,4.061,4.061,0,0,1-1.272,1.409,3.509,3.509,0,0,1-2.045.558,2.776,2.776,0,0,1-1.935-.714,5.327,5.327,0,0,1-1.255-1.671,6.444,6.444,0,0,1-1.766,1.223,4.867,4.867,0,0,1-2.138.511,5.213,5.213,0,0,1-3.69-8.894,5.241,5.241,0,0,1,1.659-1.116,5.31,5.31,0,0,1,4.061,0,5.209,5.209,0,0,1,2.772,2.775,5.1,5.1,0,0,1,.4,2.028Zm-8.492-1.984a3.288,3.288,0,0,0,5.564,2.371,3.367,3.367,0,0,0,1.006-2.371,3.285,3.285,0,1,0-6.569,0Z" transform="translate(-58.88 -160.556)" fill="#eff3f5"/>
      </g>
      <g id="Group_392" data-name="Group 392" transform="translate(218.136)" opacity="0.521">
        <path id="Path_294" data-name="Path 294" d="M141.436,118.851a1.9,1.9,0,0,0,.558,1.395,1.864,1.864,0,0,0,1.365.555,1.688,1.688,0,0,0,1.145-.372,2.407,2.407,0,0,0,.665-.944,4.325,4.325,0,0,0,.3-1.255c.042-.455.061-.888.061-1.3a9.11,9.11,0,0,0-.729-3.626,9.17,9.17,0,0,0-4.942-4.942,9.143,9.143,0,0,0-3.626-.729,9.035,9.035,0,0,0-3.609.729,9.422,9.422,0,0,0-2.943,1.982,9.312,9.312,0,0,0-1.984,2.96,9.108,9.108,0,0,0-.727,3.626,9,9,0,0,0,.727,3.611,9.29,9.29,0,0,0,4.928,4.928,9.033,9.033,0,0,0,3.609.727,10.712,10.712,0,0,0,1.426-.093,8.282,8.282,0,0,0,1.333-.279,1.442,1.442,0,0,1,.883-.029.755.755,0,0,1,.541.555.687.687,0,0,1-.2.807,3.131,3.131,0,0,1-.727.433,10.25,10.25,0,0,1-1.6.372,11.2,11.2,0,0,1-6.026-.758,11.129,11.129,0,0,1-5.936-5.936,11.251,11.251,0,0,1,0-8.74,11.526,11.526,0,0,1,2.385-3.562,11.169,11.169,0,0,1,3.55-2.4,11.245,11.245,0,0,1,8.737,0,11.235,11.235,0,0,1,5.965,5.965,10.9,10.9,0,0,1,.886,4.37,12.3,12.3,0,0,1-.171,1.97,5.916,5.916,0,0,1-.636,1.889,4.032,4.032,0,0,1-1.27,1.409,3.515,3.515,0,0,1-2.045.56,2.8,2.8,0,0,1-1.938-.714,5.367,5.367,0,0,1-1.253-1.674,6.542,6.542,0,0,1-1.766,1.226,4.877,4.877,0,0,1-2.141.511,5.106,5.106,0,0,1-2.028-.4,5.2,5.2,0,0,1-2.775-2.775,5.333,5.333,0,0,1,0-4.059,5.2,5.2,0,0,1,2.775-2.775,5.333,5.333,0,0,1,4.059,0,5.31,5.31,0,0,1,1.659,1.116,5.241,5.241,0,0,1,1.116,1.659,5.159,5.159,0,0,1,.4,2.031Zm-8.49-1.984a3.288,3.288,0,0,0,5.561,2.371,3.358,3.358,0,0,0,1.008-2.371,3.285,3.285,0,1,0-6.569,0Z" transform="translate(-125.043 -105.678)" fill="#dff2fd"/>
      </g>
      <g id="Group_393" data-name="Group 393" transform="translate(344.206 141.166)">
        <path id="Path_295" data-name="Path 295" d="M186.741,163.837a1.2,1.2,0,0,1,1.691-.2,1.208,1.208,0,0,1,.2,1.691,1.2,1.2,0,1,1-1.894-1.488Zm-2.273,3.364a.909.909,0,1,1,1.429,1.125l-7.7,9.784a.9.9,0,0,1-1.28.152.872.872,0,0,1-.343-.607.881.881,0,0,1,.191-.67Z" transform="translate(-176.57 -163.375)" fill="#eff3f5"/>
      </g>
      <g id="Group_394" data-name="Group 394" transform="translate(83.475 37.41)">
        <path id="Path_296" data-name="Path 296" d="M70.395,132.088a5.29,5.29,0,0,1,1.581-2.168,5.4,5.4,0,0,1,2.363-1.123.027.027,0,0,1-.017-.039,4.981,4.981,0,0,1-.749-2.2,5.126,5.126,0,0,1,1.444-4.086,5.1,5.1,0,0,1,1.61-1.1,5.043,5.043,0,0,1,1.9-.409,5.139,5.139,0,0,1,3.68,1.473,5.06,5.06,0,0,1,1.5,3.511,4.956,4.956,0,0,1-.367,1.987,4.816,4.816,0,0,1-.979,1.536,5.4,5.4,0,0,1-1.414,1.079,5.086,5.086,0,0,1-1.686.543,4.571,4.571,0,0,1-1.793-.1l2.593,5.211,3.156-1.172a.965.965,0,0,1,.7.042.775.775,0,0,1,.443.509.989.989,0,0,1-.044.71.8.8,0,0,1-.516.458l-2.938,1.1,1.444,3.107a.8.8,0,0,1,.059.688.994.994,0,0,1-.455.546.8.8,0,0,1-.688.056.977.977,0,0,1-.546-.455l-1.527-3.3-1.38.524a6.929,6.929,0,0,1-2.126.494,5.09,5.09,0,0,1-2.251-.379,5.233,5.233,0,0,1-1.791-1.177,5.4,5.4,0,0,1-1.6-3.753A5.319,5.319,0,0,1,70.395,132.088Zm4.81-1.585a3.572,3.572,0,0,0-1.894.665,3.474,3.474,0,0,0-1.253,1.585,3.538,3.538,0,0,0-.264,1.412,3.677,3.677,0,0,0,1.072,2.5,3.536,3.536,0,0,0,1.2.783,3.259,3.259,0,0,0,1.857.142,15.416,15.416,0,0,0,2.43-.736Zm.426-5.647a3.244,3.244,0,0,0-.247,1.243,3.1,3.1,0,0,0,.252,1.194,3.238,3.238,0,0,0,.7,1.02,3.614,3.614,0,0,0,1.1.739,3.206,3.206,0,0,0,2.476-.022,3.245,3.245,0,0,0,1.7-4.252,3.248,3.248,0,0,0-.7-1.023,3.246,3.246,0,0,0-3.555-.678,3.248,3.248,0,0,0-1.023.7A3.185,3.185,0,0,0,75.631,124.855Z" transform="translate(-70.004 -120.968)" fill="#dff2fd"/>
      </g>
      <path id="Path_297" data-name="Path 297" d="M139.07,193.322c.027.027.027,0,.027,0a12.231,12.231,0,1,0-14.342,0h-.012L119.707,206.9h24.41l-5.033-13.577" transform="translate(85.356 -10.798)" fill="#008fe9" stroke="#fff" stroke-linecap="round" stroke-linejoin="round" stroke-width="2"/>
      <path id="Path_312" data-name="Path 312" d="M1724.482-2736.041l14.36,14.36,27.19-27.19" transform="translate(-1410.367 2975.984)" fill="none" stroke="#008fe9" stroke-linecap="round" stroke-linejoin="round" stroke-width="4"/>
    </g>
  </g>
</svg>
