<svg xmlns="http://www.w3.org/2000/svg" width="367.465" height="105.604" viewBox="0 0 367.465 105.604">
  <g id="Group_313" data-name="Group 313" transform="translate(-457.099 -246.926)">
    <g id="Group_312" data-name="Group 312">
      <g id="Group_311" data-name="Group 311">
        <g id="Component_10_1" data-name="Component 10 – 1" transform="translate(458.793 254.223)">
          <g id="Group_289" data-name="Group 289" transform="translate(-2468.738 6288.385) rotate(-8)">
            <path id="Path_228" data-name="Path 228" d="M3318.638-5874.724v88.507h64.048v-75.231l-13.275-13.275Z" fill="none" stroke="#00a8f8" stroke-width="3"/>
            <path id="Path_229" data-name="Path 229" d="M3369.488-5874.724v14.024h13.586" fill="none" stroke="#00a8f8" stroke-width="3"/>
          </g>
        </g>
        <g id="Component_8_1" data-name="Component 8 – 1" transform="translate(591.132 248.653)">
          <path id="Path_230" data-name="Path 230" d="M3368.132-5892.347l120.825,9.475-87.846,35.01-4.841-6.463-13.375-17.857,71-6.59h-77.354Z" transform="translate(-3368.132 5892.347)" fill="none" stroke="#00a8f8" stroke-width="3"/>
          <path id="Path_231" data-name="Path 231" d="M3376.571-5878.393v29.85l5.766-23.668,14.27,17.863" transform="translate(-3368.132 5892.347)" fill="none" stroke="#00a8f8" stroke-width="3"/>
          <path id="Path_232" data-name="Path 232" d="M3376.571-5848.542l19.771-5.9" transform="translate(-3368.132 5892.347)" fill="none" stroke="#00a8f8" stroke-width="3"/>
        </g>
        <g id="Component_9_1" data-name="Component 9 – 1" transform="translate(744.846 260.249)">
          <path id="Path_233" data-name="Path 233" d="M3555.174-5880.751l-9.806,23.337-23.522,8.43,21.167,1.3-1.779,14.126-3.276,26.009,38.089,10.834,1.361,3.265,9.35-3.265,3.133,4.956h7.738l-5.558-4.956v-8.344l-5.312-2.491Z" transform="translate(-3521.846 5880.751)" fill="none" stroke="#00a8f8" stroke-width="3"/>
          <path id="Path_234" data-name="Path 234" d="M3521.846-5849.248l23.767-8.058,39.2,55.23-41.9-45.535Z" transform="translate(-3521.846 5880.751)" fill="none" stroke="#00a8f8" stroke-width="3"/>
          <path id="Path_235" data-name="Path 235" d="M3541.336-5836.254l-19.479-12.916" transform="translate(-3521.846 5880.751)" fill="none" stroke="#00a8f8" stroke-width="3"/>
        </g>
      </g>
    </g>
  </g>
</svg>
