<svg xmlns="http://www.w3.org/2000/svg" width="382.574" height="209.234" viewBox="0 0 382.574 209.234">
  <g id="Group_399" data-name="Group 399" transform="translate(426.399 192.66)">
    <g id="Group_396" data-name="Group 396" transform="translate(-227.117 -113.381)">
      <path id="Path_298" data-name="Path 298" d="M-323.621-52.37a6.318,6.318,0,0,1-6.322-6.317v-65.5a6.19,6.19,0,0,1,6.19-6.19h68.216a6.19,6.19,0,0,1,6.19,6.19V-56.8a4.371,4.371,0,0,1-4.368,4.37Z" transform="translate(329.943 180.825)" fill="#dff2fe" stroke="#fff" stroke-miterlimit="10" stroke-width="3"/>
      <path id="Path_299" data-name="Path 299" d="M-321.076-104.151v-29.8A20.792,20.792,0,0,1-300.143-154.6,20.792,20.792,0,0,1-279.21-133.95v29.8" transform="translate(339.545 154.598)" fill="none" stroke="#fff" stroke-miterlimit="10" stroke-width="3"/>
      <path id="Path_300" data-name="Path 300" d="M-297.05-100.111c.027.027.027,0,.027,0a12.639,12.639,0,0,0,5.207-10.21,12.628,12.628,0,0,0-12.639-12.61,12.627,12.627,0,0,0-12.639,12.61,12.549,12.549,0,0,0,5.234,10.21h-.015l-5.207,14.045h25.253l-5.207-14.045" transform="translate(343.857 188.89)" fill="#008fe9" stroke="#fff" stroke-linecap="round" stroke-linejoin="round" stroke-width="3"/>
    </g>
    <circle id="Ellipse_41" data-name="Ellipse 41" cx="41.209" cy="41.209" r="41.209" transform="translate(-381.834 -67.344)" fill="#008fe9" stroke="#fff" stroke-miterlimit="10" stroke-width="3"/>
    <circle id="Ellipse_42" data-name="Ellipse 42" cx="15.984" cy="15.984" r="15.984" transform="translate(-356.61 -42.119)" fill="#008fe9" stroke="#fff" stroke-miterlimit="10" stroke-width="3"/>
    <path id="Path_301" data-name="Path 301" d="M-365.349-119.324h95.129l13.587,13.587-14.5,14.5h-10.484v9.345h-12.536V-95.948h-18.994v17.854H-332.14V-98.709h-13.676v16.056h-11.776v-6.913H-366.2" transform="translate(63.566 79.414)" fill="#008fe9" stroke="#fff" stroke-miterlimit="10" stroke-width="3"/>
    <g id="Path_302" data-name="Path 302" transform="translate(90.173 23.12)" fill="none" stroke-linecap="round" stroke-linejoin="round" opacity="0.604">
      <path d="M-332.551-162.978l2.385-7.569a1.089,1.089,0,0,1,1.931-.3l4.557,6.5a1.094,1.094,0,0,0,.9.464l7.936-.073a1.089,1.089,0,0,1,.881,1.743l-4.772,6.344a1.087,1.087,0,0,0-.16,1l2.52,7.525a1.091,1.091,0,0,1-1.387,1.377l-7.507-2.579a1.085,1.085,0,0,0-1,.156l-6.378,4.722a1.089,1.089,0,0,1-1.737-.894l.131-7.936a1.087,1.087,0,0,0-.456-.9l-6.463-4.607a1.09,1.09,0,0,1,.312-1.929l7.588-2.327A1.082,1.082,0,0,0-332.551-162.978Z" stroke="none"/>
      <path d="M -329.124267578125 -170.3101196289062 C -329.19287109375 -170.3101196289062 -329.20703125 -170.2649993896484 -329.2126770019531 -170.2470550537109 L -331.5964660644531 -162.6813049316406 C -331.8018798828125 -162.0210113525391 -332.3190002441406 -161.5072326660156 -332.9767456054688 -161.307861328125 L -340.5646057128906 -158.9813232421875 C -340.5842590332031 -158.9753112792969 -340.6171569824219 -158.9652099609375 -340.6260375976562 -158.9105224609375 C -340.6350402832031 -158.8551788330078 -340.6063842773438 -158.834716796875 -340.5898132324219 -158.8228912353516 L -334.1258239746094 -154.2149963378906 C -333.5661926269531 -153.8152313232422 -333.2391967773438 -153.1666107177734 -333.2510986328125 -152.4808044433594 L -333.3822631835938 -144.5453643798828 C -333.3828125 -144.5117340087891 -333.3747863769531 -144.4966735839844 -333.3616027832031 -144.4833068847656 C -333.3430786132812 -144.4644775390625 -333.3143005371094 -144.4518432617188 -333.2899475097656 -144.4518432617188 C -333.2785949707031 -144.4518432617188 -333.2637329101562 -144.4542541503906 -333.2401123046875 -144.4717102050781 L -326.8654479980469 -149.1912536621094 C -326.5078735351562 -149.4581298828125 -326.0650939941406 -149.6051330566406 -325.61865234375 -149.6051330566406 C -325.387451171875 -149.6051330566406 -325.1593017578125 -149.5670013427734 -324.9405822753906 -149.4918518066406 L -317.4355773925781 -146.9138641357422 C -317.4223022460938 -146.9093322753906 -317.4106140136719 -146.9070434570312 -317.4008178710938 -146.9070434570312 C -317.3731079101562 -146.9070434570312 -317.34521484375 -146.9285736083984 -317.329833984375 -146.9498901367188 C -317.3094482421875 -146.9781646728516 -317.3108825683594 -146.9999389648438 -317.31982421875 -147.0267333984375 L -319.83935546875 -154.5500030517578 C -320.0595397949219 -155.2025146484375 -319.9442138671875 -155.9204254150391 -319.5306091308594 -156.4706268310547 L -314.7590026855469 -162.8146514892578 C -314.7466125488281 -162.8311462402344 -314.7258605957031 -162.8587493896484 -314.7505798339844 -162.9082489013672 C -314.7747802734375 -162.9566802978516 -314.8082580566406 -162.9573516845703 -314.8304748535156 -162.9573516845703 C -314.830810546875 -162.9573516845703 -314.8311157226562 -162.9573516845703 -314.8314514160156 -162.9573516845703 L -322.7717590332031 -162.8844299316406 L -322.7827453613281 -162.8843994140625 C -323.4648132324219 -162.8843994140625 -324.1055603027344 -163.2170867919922 -324.4969482421875 -163.7746124267578 L -329.0542907714844 -170.2711944580078 C -329.0715942382812 -170.2958526611328 -329.0885925292969 -170.3101196289062 -329.124267578125 -170.3101196289062 M -329.124267578125 -171.3101348876953 C -328.7919616699219 -171.3101348876953 -328.45703125 -171.1611480712891 -328.235595703125 -170.8454132080078 L -323.6782836914062 -164.3488922119141 C -323.4733276367188 -164.0569458007812 -323.1386413574219 -163.8843994140625 -322.7827453613281 -163.8843994140625 C -322.7806091308594 -163.8843994140625 -322.7785034179688 -163.8843994140625 -322.7763671875 -163.8844146728516 L -314.8406372070312 -163.9573211669922 C -314.8370361328125 -163.9573516845703 -314.8333129882812 -163.9573669433594 -314.8297424316406 -163.9573669433594 C -313.9324035644531 -163.9574737548828 -313.4201965332031 -162.9317626953125 -313.9595336914062 -162.2139434814453 L -318.7314453125 -155.8695220947266 C -318.9459838867188 -155.5841217041016 -319.0064086914062 -155.2092437744141 -318.891845703125 -154.8697357177734 L -316.37158203125 -147.3442840576172 C -316.1266174316406 -146.6095581054688 -316.6948852539062 -145.9070434570312 -317.4008178710938 -145.9070434570312 C -317.5173950195312 -145.9070434570312 -317.6376953125 -145.9261932373047 -317.7587280273438 -145.9675140380859 L -325.2654418945312 -148.5460968017578 C -325.3806762695312 -148.585693359375 -325.5000610351562 -148.6051330566406 -325.61865234375 -148.6051330566406 C -325.8494262695312 -148.6051330566406 -326.0774230957031 -148.5315856933594 -326.2672729492188 -148.3898773193359 L -332.6450805664062 -143.6680145263672 C -332.8466186523438 -143.51904296875 -333.0711364746094 -143.4518280029297 -333.2899475097656 -143.4518280029297 C -333.8604431152344 -143.4518280029297 -334.3927307128906 -143.9081878662109 -334.3821411132812 -144.5615692138672 L -334.2509765625 -152.4973297119141 C -334.2447509765625 -152.8555755615234 -334.41552734375 -153.1930084228516 -334.7070922851562 -153.4012908935547 L -341.1702880859375 -158.0086212158203 C -341.905517578125 -158.5334930419922 -341.7201538085938 -159.6728668212891 -340.8578491210938 -159.9373626708984 L -333.2698974609375 -162.2639312744141 C -332.92626953125 -162.3680877685547 -332.6575927734375 -162.6367645263672 -332.5513305664062 -162.9783477783203 L -330.1664428710938 -170.5475616455078 C -330.0112915039062 -171.0416564941406 -329.5701904296875 -171.3101348876953 -329.124267578125 -171.3101348876953 Z" stroke="none" fill="#eff3f5"/>
    </g>
    <g id="Path_303" data-name="Path 303" transform="translate(69.167 49.944)" fill="none" stroke-linecap="round" stroke-linejoin="round">
      <path d="M-355.159-141.153l1.541-4.893a.7.7,0,0,1,1.248-.194l2.947,4.2a.7.7,0,0,0,.581.3l5.13-.046a.7.7,0,0,1,.569,1.127l-3.083,4.1a.7.7,0,0,0-.106.646l1.631,4.866a.705.705,0,0,1-.9.889l-4.851-1.666a.706.706,0,0,0-.648.1l-4.122,3.053a.7.7,0,0,1-1.123-.579l.083-5.128a.7.7,0,0,0-.294-.585l-4.178-2.979a.7.7,0,0,1,.2-1.246l4.905-1.5A.706.706,0,0,0-355.159-141.153Z" stroke="none"/>
      <path d="M -352.8435363769531 -145.173828125 L -354.2037963867188 -140.8558959960938 C -354.3701477050781 -140.3215026855469 -354.7896118164062 -139.9028015136719 -355.3299560546875 -139.7346649169922 L -359.6607055664062 -138.4069061279297 L -355.9724731445312 -135.7777404785156 C -355.515380859375 -135.4526672363281 -355.2484741210938 -134.9225616455078 -355.2584533691406 -134.3612365722656 L -355.3321228027344 -129.8311462402344 L -351.6927795410156 -132.5270538330078 C -351.4017333984375 -132.7429656982422 -351.0411682128906 -132.8618621826172 -350.6775207519531 -132.8618621826172 C -350.4889831542969 -132.8618621826172 -350.3031311035156 -132.8309326171875 -350.1243286132812 -132.7696838378906 L -345.8392028808594 -131.2977447509766 L -347.2801208496094 -135.5965118408203 C -347.4569396972656 -136.1272583007812 -347.3612976074219 -136.7115478515625 -347.0245666503906 -137.1591339111328 L -344.3021545410156 -140.7809906005859 L -348.8319091796875 -140.7405242919922 L -348.8476257324219 -140.7404479980469 C -349.4014587402344 -140.7404479980469 -349.9220581054688 -141.0106048583984 -350.240966796875 -141.4640502929688 L -352.8435363769531 -145.173828125 M -352.9428100585938 -146.5386199951172 C -352.728515625 -146.5386199951172 -352.5125427246094 -146.4427795410156 -352.3695983886719 -146.239501953125 L -349.4223327636719 -142.0383605957031 C -349.290283203125 -141.8505706787109 -349.076416015625 -141.7404479980469 -348.8476257324219 -141.7404479980469 C -348.8454895019531 -141.7404479980469 -348.8433532714844 -141.7404632568359 -348.8412170410156 -141.740478515625 L -343.7111511230469 -141.7863159179688 C -343.7093505859375 -141.7863311767578 -343.70751953125 -141.7863311767578 -343.7056884765625 -141.7863311767578 C -343.1257934570312 -141.7863464355469 -342.7915344238281 -141.1224822998047 -343.1424865722656 -140.6594848632812 L -346.2251892089844 -136.5582885742188 C -346.3646545410156 -136.3729248046875 -346.4042663574219 -136.1313171386719 -346.3313903808594 -135.91259765625 L -344.7004699707031 -131.0469970703125 C -344.5414428710938 -130.5734252929688 -344.9098815917969 -130.1182098388672 -345.3663024902344 -130.1182098388672 C -345.4418640136719 -130.1182098388672 -345.519775390625 -130.1306762695312 -345.5981750488281 -130.1575927734375 L -350.4491882324219 -131.8239135742188 C -350.5234985351562 -131.8493804931641 -350.6007080078125 -131.8618774414062 -350.6775207519531 -131.8618774414062 C -350.8268127441406 -131.8618774414062 -350.974609375 -131.814697265625 -351.0970153808594 -131.7239074707031 L -355.2190246582031 -128.6704406738281 C -355.3490600585938 -128.5749206542969 -355.4937744140625 -128.5318450927734 -355.6348266601562 -128.5318450927734 C -356.00439453125 -128.5318450927734 -356.3492736816406 -128.8273468017578 -356.3417053222656 -129.2494812011719 L -356.2583312988281 -134.3775024414062 C -356.2541809082031 -134.6107788085938 -356.3645935058594 -134.8294982910156 -356.5520324707031 -134.9627990722656 L -360.7303161621094 -137.9413146972656 C -361.2051696777344 -138.2787475585938 -361.0864562988281 -139.0160827636719 -360.5282287597656 -139.1868896484375 L -355.6230773925781 -140.6907348632812 C -355.4022521972656 -140.7594604492188 -355.2273254394531 -140.9323425292969 -355.1585998535156 -141.1531066894531 L -353.6172790527344 -146.0458068847656 C -353.5169067382812 -146.3648986816406 -353.2313537597656 -146.5386199951172 -352.9428100585938 -146.5386199951172 Z" stroke="none" fill="#eff3f5"/>
    </g>
    <path id="Path_304" data-name="Path 304" d="M-359.062-183.242l2.16-6.857a.986.986,0,0,1,1.748-.271l4.128,5.886a.989.989,0,0,0,.816.419l7.19-.065a.987.987,0,0,1,.8,1.579l-4.322,5.747a.987.987,0,0,0-.148.906l2.283,6.817a.986.986,0,0,1-1.256,1.246l-6.8-2.335a.991.991,0,0,0-.908.142l-5.778,4.276a.986.986,0,0,1-1.573-.808l.119-7.188a.986.986,0,0,0-.412-.821l-5.855-4.172a.987.987,0,0,1,.283-1.747l6.874-2.108A.982.982,0,0,0-359.062-183.242Z" transform="translate(62.389 2.026)" fill="#dff2fe"/>
    <path id="Path_305" data-name="Path 305" d="M-320.605-188.119l1.3-4.126a.594.594,0,0,1,1.052-.162l2.485,3.541a.6.6,0,0,0,.492.254l4.326-.04a.593.593,0,0,1,.479.95l-2.6,3.458a.59.59,0,0,0-.09.546l1.375,4.1a.594.594,0,0,1-.756.75l-4.091-1.4a.588.588,0,0,0-.546.083l-3.478,2.574a.593.593,0,0,1-.946-.487l.071-4.324a.591.591,0,0,0-.248-.494l-3.522-2.512a.592.592,0,0,1,.171-1.05L-321-187.73A.6.6,0,0,0-320.605-188.119Z" transform="translate(107.581 0)" fill="#008fe9" opacity="0.14"/>
    <path id="Path_306" data-name="Path 306" d="M-286.753-168.342l1.76-5.582a.8.8,0,0,1,1.423-.221l3.362,4.793a.8.8,0,0,0,.664.342l5.855-.052a.8.8,0,0,1,.648,1.285l-3.518,4.678a.8.8,0,0,0-.121.737l1.86,5.551a.8.8,0,0,1-1.023,1.014l-5.536-1.9a.8.8,0,0,0-.739.112l-4.705,3.485a.8.8,0,0,1-1.281-.658l.1-5.855a.8.8,0,0,0-.337-.667l-4.766-3.4a.8.8,0,0,1,.229-1.423l5.6-1.716A.8.8,0,0,0-286.753-168.342Z" transform="translate(142.345 19.679)" fill="#dff2fe" opacity="0.471"/>
    <g id="Path_307" data-name="Path 307" transform="translate(174.07 32.777)" fill="none" stroke-miterlimit="10" opacity="0.387">
      <path d="M-257.456-156.246l1.758-5.584a.8.8,0,0,1,1.423-.219l3.364,4.791a.8.8,0,0,0,.664.344l5.853-.054a.8.8,0,0,1,.65,1.287l-3.52,4.678a.8.8,0,0,0-.119.737l1.858,5.551a.8.8,0,0,1-1.023,1.014l-5.536-1.9a.805.805,0,0,0-.737.115L-257.527-142a.8.8,0,0,1-1.281-.66l.1-5.853a.8.8,0,0,0-.335-.667l-4.768-3.4a.8.8,0,0,1,.231-1.421l5.6-1.716A.814.814,0,0,0-257.456-156.246Z" stroke="none"/>
      <path d="M -254.8642578125 -161.1474151611328 L -256.501953125 -155.9454345703125 L -256.5029907226562 -155.9421539306641 L -256.5040283203125 -155.9388732910156 C -256.6842956542969 -155.3797302246094 -257.1266174316406 -154.9407958984375 -257.6872253417969 -154.7647247314453 L -257.6904296875 -154.7637176513672 L -257.6936645507812 -154.7627258300781 L -262.9080505371094 -153.1636810302734 L -258.4688720703125 -149.9986114501953 C -257.9853820800781 -149.6560211181641 -257.702392578125 -149.0958862304688 -257.7119140625 -148.4998168945312 L -257.8011474609375 -143.0440521240234 L -253.4136657714844 -146.2934112548828 C -253.1005706787109 -146.5235595703125 -252.730224609375 -146.6452026367188 -252.3426513671875 -146.6452026367188 C -252.144287109375 -146.6452026367188 -251.948486328125 -146.6126861572266 -251.7591552734375 -146.5479888916016 L -246.5999145507812 -144.7758483886719 L -248.3303527832031 -149.9456634521484 C -248.5213317871094 -150.5081939697266 -248.4216613769531 -151.1280059814453 -248.0633239746094 -151.6044006347656 L -244.7822875976562 -155.96484375 L -250.2373962402344 -155.9143829345703 L -250.253173828125 -155.9143218994141 C -250.8428649902344 -155.9143218994141 -251.3949584960938 -156.2023773193359 -251.7309417724609 -156.6850738525391 L -254.8642578125 -161.1474151611328 M -254.9296569824219 -162.3917083740234 C -254.6847534179688 -162.3917083740234 -254.43798828125 -162.28173828125 -254.2751770019531 -162.0486450195312 L -250.9113464355469 -157.2580261230469 C -250.7625732421875 -157.0431365966797 -250.515380859375 -156.914306640625 -250.253173828125 -156.914306640625 C -250.2510986328125 -156.914306640625 -250.2490234375 -156.9143218994141 -250.2469177246094 -156.9143371582031 L -244.3940124511719 -156.9684753417969 C -244.3912963867188 -156.968505859375 -244.3885192871094 -156.968505859375 -244.3858032226562 -156.9685211181641 C -243.7243347167969 -156.9685516357422 -243.3459167480469 -156.2122955322266 -243.7441711425781 -155.6812744140625 L -247.2642517089844 -151.0031433105469 C -247.4225158691406 -150.7927551269531 -247.4683532714844 -150.5157470703125 -247.3829650878906 -150.2658081054688 L -245.5249938964844 -144.7149353027344 C -245.3428039550781 -144.1737365722656 -245.7611694335938 -143.6554260253906 -246.2820129394531 -143.6554260253906 C -246.3685302734375 -143.6554260253906 -246.4577941894531 -143.6697082519531 -246.5476989746094 -143.7005615234375 L -252.0840148925781 -145.6022338867188 C -252.1684875488281 -145.631103515625 -252.2558288574219 -145.6452026367188 -252.3426513671875 -145.6452026367188 C -252.5126647949219 -145.6452026367188 -252.6806945800781 -145.5910949707031 -252.8213806152344 -145.4876708984375 L -257.5265808105469 -142.0030212402344 C -257.6747131347656 -141.8935089111328 -257.83984375 -141.8441162109375 -258.0008544921875 -141.8441162109375 C -258.4216918945312 -141.8441162109375 -258.8150634765625 -142.1812438964844 -258.8075256347656 -142.6632995605469 L -258.7117614746094 -148.5161743164062 C -258.7075500488281 -148.7807006835938 -258.8324890136719 -149.0306701660156 -259.0470275878906 -149.1827087402344 L -263.8147277832031 -152.5819702148438 C -264.3563537597656 -152.9673156738281 -264.2209167480469 -153.8087768554688 -263.5835876464844 -154.0024719238281 L -257.9868469238281 -155.7187805175781 C -257.7348937988281 -155.7979125976562 -257.5370178222656 -155.9937438964844 -257.4557800292969 -156.2457275390625 L -255.6977844238281 -161.8299255371094 C -255.5832366943359 -162.1938629150391 -255.2581329345703 -162.3917083740234 -254.9296569824219 -162.3917083740234 Z" stroke="none" fill="#eff3f5"/>
    </g>
    <g id="Path_308" data-name="Path 308" transform="translate(159.49 78.721)" fill="none" stroke-miterlimit="10">
      <path d="M-268.574-108.667l-.352-9.89a1.357,1.357,0,0,1,2.143-1.154l8.063,5.734a1.357,1.357,0,0,0,1.252.169l9.3-3.391a1.358,1.358,0,0,1,1.762,1.681l-2.964,9.442a1.361,1.361,0,0,0,.227,1.243l6.1,7.792a1.359,1.359,0,0,1-1.056,2.2l-9.9.1a1.357,1.357,0,0,0-1.112.6l-5.526,8.209a1.357,1.357,0,0,1-2.412-.327l-3.154-9.379a1.356,1.356,0,0,0-.914-.873l-9.513-2.72a1.358,1.358,0,0,1-.437-2.4l7.946-5.9A1.348,1.348,0,0,0-268.574-108.667Z" stroke="none"/>
      <path d="M -267.56494140625 -118.9639739990234 C -267.6625366210938 -118.9639739990234 -267.7627258300781 -118.9205627441406 -267.8329162597656 -118.8478622436523 C -267.899658203125 -118.7787322998047 -267.9303283691406 -118.6947708129883 -267.9266967773438 -118.5915908813477 L -267.57470703125 -108.7038497924805 C -267.5455932617188 -107.9249801635742 -267.9019165039062 -107.1852645874023 -268.5280151367188 -106.7246017456055 L -276.4713134765625 -100.8301849365234 C -276.6267700195312 -100.7145767211914 -276.6248168945312 -100.559700012207 -276.6098022460938 -100.4776763916016 C -276.5948791503906 -100.3962707519531 -276.5422058105469 -100.2518539428711 -276.355712890625 -100.1987609863281 L -266.8439636230469 -97.47877502441406 C -266.0960083007812 -97.26558685302734 -265.5021667480469 -96.69853210449219 -265.255859375 -95.96303558349609 L -262.1022644042969 -86.58356475830078 C -262.0260620117188 -86.35678100585938 -261.8200988769531 -86.33916473388672 -261.7587890625 -86.33916473388672 C -261.6361083984375 -86.33916473388672 -261.5380859375 -86.39230346679688 -261.4678344726562 -86.49655151367188 L -255.9414978027344 -94.70584106445312 C -255.5078735351562 -95.34894561767578 -254.78564453125 -95.73723602294922 -254.01025390625 -95.7445068359375 L -244.1155090332031 -95.84445190429688 C -243.9219970703125 -95.84660339355469 -243.8326110839844 -95.97249603271484 -243.7965698242188 -96.04734039306641 C -243.7603759765625 -96.12254333496094 -243.7174682617188 -96.27162170410156 -243.8358459472656 -96.42353057861328 L -249.93505859375 -104.2163162231445 C -250.4124145507812 -104.8273849487305 -250.5595397949219 -105.6337738037109 -250.3281555175781 -106.3749008178711 L -247.3645935058594 -115.8154602050781 C -247.32861328125 -115.9304962158203 -247.3452758789062 -116.0362930297852 -247.4141235351562 -116.1299209594727 C -247.4844665527344 -116.2255859375 -247.591552734375 -116.2826919555664 -247.7006225585938 -116.2826766967773 C -247.7421875 -116.2826614379883 -247.7857360839844 -116.2744827270508 -247.82958984375 -116.2585144042969 L -257.1226501464844 -112.8686218261719 C -257.3825073242188 -112.7729568481445 -257.6549072265625 -112.7244415283203 -257.9322509765625 -112.7244415283203 C -258.423828125 -112.7244415283203 -258.8961181640625 -112.8749923706055 -259.2994995117188 -113.1608200073242 L -267.3624877929688 -118.8950805664062 C -267.4276428222656 -118.9414443969727 -267.4938659667969 -118.9639739990234 -267.56494140625 -118.9639739990234 M -267.56494140625 -119.9639739990234 C -267.3003540039062 -119.9639739990234 -267.0289916992188 -119.8850555419922 -266.7828063964844 -119.7099304199219 L -258.7199401855469 -113.9757537841797 C -258.4866027832031 -113.8104019165039 -258.2105407714844 -113.7244491577148 -257.9322509765625 -113.7244491577148 C -257.7758483886719 -113.7244491577148 -257.6187744140625 -113.751594543457 -257.4681091308594 -113.8070526123047 L -248.1722717285156 -117.1979598999023 C -248.01318359375 -117.2558898925781 -247.8543701171875 -117.2826538085938 -247.7007446289062 -117.2826766967773 C -246.83251953125 -117.2827911376953 -246.1252136230469 -116.4285125732422 -246.4101257324219 -115.51708984375 L -249.3740539550781 -106.0753936767578 C -249.5073547363281 -105.6484222412109 -249.4219665527344 -105.1839141845703 -249.1470031738281 -104.831916809082 L -243.0483703613281 -97.03987121582031 C -242.3568420410156 -96.15254974365234 -242.9796447753906 -94.85702514648438 -244.1044006347656 -94.84451293945312 L -254.0001525878906 -94.74455261230469 C -254.4458923339844 -94.74037170410156 -254.8623962402344 -94.51751708984375 -255.1123962402344 -94.14676666259766 L -260.6382751464844 -85.93812561035156 C -260.9121398925781 -85.53187561035156 -261.3369750976562 -85.33915710449219 -261.7587890625 -85.33915710449219 C -262.3058471679688 -85.33915710449219 -262.8479309082031 -85.66300201416016 -263.0502014160156 -86.26515197753906 L -266.2037048339844 -95.64434051513672 C -266.3453063964844 -96.06717681884766 -266.6869201660156 -96.39418029785156 -267.1180725097656 -96.51707458496094 L -276.6306457519531 -99.2373046875 C -277.7137145996094 -99.54557037353516 -277.9699401855469 -100.9619445800781 -277.0680236816406 -101.6326370239258 L -269.1217956542969 -107.5292510986328 C -268.7615051269531 -107.7937698364258 -268.5573425292969 -108.2207565307617 -268.5740051269531 -108.66650390625 L -268.9260559082031 -118.5560150146484 C -268.9550170898438 -119.3786468505859 -268.2853393554688 -119.9639739990234 -267.56494140625 -119.9639739990234 Z" stroke="none" fill="#a1e5cf"/>
    </g>
    <path id="Path_309" data-name="Path 309" d="M-409.112-151.97l1.541-4.895a.7.7,0,0,1,1.248-.192l2.945,4.2a.707.707,0,0,0,.583.3l5.13-.046a.7.7,0,0,1,.569,1.127l-3.085,4.1a.707.707,0,0,0-.1.648l1.629,4.864a.7.7,0,0,1-.9.889l-4.853-1.666a.7.7,0,0,0-.646.1l-4.124,3.053a.7.7,0,0,1-1.123-.577l.085-5.13a.7.7,0,0,0-.3-.585l-4.176-2.976a.7.7,0,0,1,.2-1.248l4.9-1.5A.706.706,0,0,0-409.112-151.97Z" transform="translate(10.741 38.229)" fill="#eff3f5" opacity="0.166"/>
    <path id="Path_310" data-name="Path 310" d="M-417.768-114.912l1.541-4.893a.7.7,0,0,1,1.248-.194l2.945,4.2a.707.707,0,0,0,.583.3l5.13-.046a.7.7,0,0,1,.569,1.127l-3.083,4.1a.7.7,0,0,0-.106.646l1.629,4.866a.7.7,0,0,1-.9.889l-4.851-1.666a.705.705,0,0,0-.648.1l-4.124,3.053a.7.7,0,0,1-1.123-.577l.085-5.13a.7.7,0,0,0-.3-.585l-4.176-2.979a.7.7,0,0,1,.2-1.246l4.905-1.5A.711.711,0,0,0-417.768-114.912Z" transform="translate(1.369 78.36)" fill="#008fe9" opacity="0.063"/>
    <path id="Path_311" data-name="Path 311" d="M-384.7-156.711l1.979-6.282a.9.9,0,0,1,1.6-.248l3.783,5.393a.9.9,0,0,0,.748.383l6.586-.058a.9.9,0,0,1,.729,1.445l-3.957,5.266a.9.9,0,0,0-.135.829l2.091,6.244a.9.9,0,0,1-1.15,1.143l-6.23-2.139a.9.9,0,0,0-.831.127l-5.293,3.92a.9.9,0,0,1-1.441-.741l.108-6.586a.9.9,0,0,0-.379-.75l-5.363-3.822a.906.906,0,0,1,.26-1.6l6.3-1.931A.9.9,0,0,0-384.7-156.711Z" transform="translate(35.373 31.441)" fill="#fff" opacity="0.216"/>
    <line id="Line_18" data-name="Line 18" x2="212.551" transform="translate(-302.632 15.074)" fill="none" stroke="#fff" stroke-linecap="round" stroke-linejoin="round" stroke-width="3"/>
    <line id="Line_19" data-name="Line 19" x2="59.346" transform="translate(-373.335 15.074)" fill="none" stroke="#fff" stroke-linecap="round" stroke-linejoin="round" stroke-width="3"/>
    <line id="Line_20" data-name="Line 20" x2="38.687" transform="translate(-424.899 15.074)" fill="none" stroke="#fff" stroke-linecap="round" stroke-linejoin="round" stroke-width="3"/>
    <line id="Line_21" data-name="Line 21" x2="31.865" transform="translate(-77.19 15.074)" fill="none" stroke="#fff" stroke-linecap="round" stroke-linejoin="round" stroke-width="3"/>
  </g>
</svg>
